<svg width="518" height="275" viewBox="0 0 518 275" fill="none" xmlns="http://www.w3.org/2000/svg">
<rect width="333" height="275" transform="translate(185)" fill="white"/>
<circle cx="245.959" cy="92.527" r="15.2522" transform="rotate(0.585447 245.959 92.527)" stroke="#3D7BA3" stroke-opacity="0.2" stroke-width="3"/>
<path d="M326.806 231.32C326.721 239.664 319.463 246.498 310.414 246.406C301.364 246.313 294.247 239.332 294.333 230.988C294.418 222.645 301.676 215.81 310.725 215.903C319.775 215.995 326.891 222.977 326.806 231.32Z" stroke="#3D7BA3" stroke-opacity="0.2" stroke-width="3"/>
<circle cx="345.883" cy="150.705" r="15.2522" transform="rotate(0.585447 345.883 150.705)" stroke="#3D7BA3" stroke-opacity="0.2" stroke-width="3"/>
<circle cx="187.067" cy="165.836" r="16.2376" transform="rotate(0.585447 187.067 165.836)" stroke="#3D7BA3" stroke-opacity="0.2" stroke-width="3"/>
<path d="M32.3722 113.011C32.2798 122.06 25.2984 129.177 16.9549 129.092C8.61145 129.006 1.777 121.748 1.86946 112.699C1.96193 103.65 8.94328 96.5329 17.2868 96.6181C25.6303 96.7034 32.4647 103.961 32.3722 113.011Z" stroke="#3D7BA3" stroke-opacity="0.2" stroke-width="3"/>
<circle cx="101.661" cy="230.006" r="16.2383" transform="rotate(0.585447 101.661 230.006)" stroke="#3D7BA3" stroke-opacity="0.2" stroke-width="3"/>
<path d="M493.003 168.962C492.911 178.011 485.929 185.128 477.586 185.043C469.242 184.958 462.408 177.7 462.5 168.65C462.593 159.601 469.574 152.484 477.918 152.57C486.261 152.655 493.096 159.913 493.003 168.962Z" stroke="#3D7BA3" stroke-opacity="0.2" stroke-width="3"/>
<path d="M115.933 223.27L144.544 199.012L173.155 174.755" stroke="#3D7BA3" stroke-opacity="0.2" stroke-width="3"/>
<line x1="116.684" y1="234.482" x2="293.049" y2="232.446" stroke="#3D7BA3" stroke-opacity="0.2" stroke-width="3"/>
<line x1="198.93" y1="156.066" x2="237.739" y2="105.595" stroke="#3D7BA3" stroke-opacity="0.2" stroke-width="3"/>
<line x1="324.508" y1="227.435" x2="465.161" y2="178.283" stroke="#3D7BA3" stroke-opacity="0.2" stroke-width="3"/>
<path d="M202.435 165.762L333.115 157.199" stroke="#3D7BA3" stroke-opacity="0.2" stroke-width="3"/>
<line x1="27.3397" y1="106.281" x2="229.417" y2="92.4516" stroke="#3D7BA3" stroke-opacity="0.2" stroke-width="3"/>
<line x1="92.8259" y1="216.75" x2="24.6782" y2="123.685" stroke="#3D7BA3" stroke-opacity="0.2" stroke-width="3"/>
<path d="M258.439 86.3057L425.715 49.8571" stroke="#3D7BA3" stroke-opacity="0.2" stroke-width="3"/>
<path d="M355.717 140.847L435.529 58.0072" stroke="#3D7BA3" stroke-opacity="0.2" stroke-width="3"/>
<circle cx="439.595" cy="45.2321" r="15.2522" transform="rotate(0.585447 439.595 45.2321)" stroke="#3D7BA3" stroke-opacity="0.2" stroke-width="3"/>
</svg>
