<svg width="333" height="572" viewBox="0 0 333 572" fill="none" xmlns="http://www.w3.org/2000/svg">
<g clip-path="url(#clip0_1341_170)">
<rect width="333" height="572" fill="white"/>
<circle cx="164.518" cy="85.4017" r="15.3482" stroke="#889DA3" stroke-width="3"/>
<path d="M247.259 224.152C247.259 232.549 240.026 239.5 230.92 239.5C221.814 239.5 214.581 232.549 214.581 224.152C214.581 215.755 221.814 208.803 230.92 208.803C240.026 208.803 247.259 215.755 247.259 224.152Z" stroke="#889DA3" stroke-width="3"/>
<circle cx="265.607" cy="142.884" r="15.3482" stroke="#889DA3" stroke-width="3"/>
<circle cx="106.045" cy="159.732" r="16.3393" stroke="#889DA3" stroke-width="3"/>
<circle cx="20.8131" cy="225.143" r="16.34" stroke="#889DA3" stroke-width="3"/>
<path d="M35.0971 218.223L63.6209 193.534L92.1447 168.845" stroke="#889DA3" stroke-width="3"/>
<line x1="35.9674" y1="229.5" x2="213.313" y2="225.64" stroke="#889DA3" stroke-width="3"/>
<line x1="117.881" y1="149.79" x2="156.392" y2="98.6336" stroke="#889DA3" stroke-width="3"/>
<line x1="244.902" y1="220.277" x2="385.85" y2="169.4" stroke="#889DA3" stroke-width="3"/>
<path d="M121.5 159.5L252.834 149.546" stroke="#889DA3" stroke-width="3"/>
<line x1="-55.2007" y1="101.489" x2="147.882" y2="85.5046" stroke="#889DA3" stroke-width="3"/>
<line x1="11.7989" y1="211.899" x2="-57.6923" y2="119.006" stroke="#889DA3" stroke-width="3"/>
<path d="M177.004 79.0164L344.856 40.6418" stroke="#889DA3" stroke-width="3"/>
<path d="M275.396 132.868L354.81 48.7374" stroke="#889DA3" stroke-width="3"/>
</g>
<defs>
<clipPath id="clip0_1341_170">
<rect width="333" height="572" fill="white"/>
</clipPath>
</defs>
</svg>
