<svg width="107" height="35" viewBox="0 0 107 35" fill="none" xmlns="http://www.w3.org/2000/svg">
<g clip-path="url(#clip0_1121_475)">
<path d="M41.1069 0.134766H47.2696V0.774189H44.5607V7.87515H43.8158V0.774189H41.1069V0.134766Z" fill="white"/>
<path d="M48.0146 0.134766H48.7596V3.50015H53.3985V0.134766H54.1434V7.87515H53.3985V4.10592H48.7596V7.8415H48.0146V0.134766Z" fill="white"/>
<path d="M55.7007 0.134766H61.0845V0.774189H56.4456V3.56746H60.7798V4.20688H56.4456V7.26938H61.1523V7.9088H55.7345V0.134766H55.7007Z" fill="white"/>
<path d="M41.1069 27.0913H46.0506V27.7307H41.8519V30.524H45.5766V31.1634H41.8519V34.8653H41.1069V27.0913V27.0913Z" fill="white"/>
<path d="M50.2152 26.9229C52.6532 26.9229 53.8722 28.8411 53.8722 30.9613C53.8722 33.0815 52.6532 34.9998 50.2152 34.9998C47.7773 34.9998 46.5244 33.0815 46.5244 30.9613C46.5583 28.8411 47.7773 26.9229 50.2152 26.9229ZM50.2152 34.3603C52.2807 34.3603 53.1273 32.644 53.1273 30.9613C53.1273 29.2786 52.2469 27.5623 50.2152 27.5623C48.1497 27.5623 47.2694 29.2786 47.2694 30.9613C47.3032 32.644 48.1836 34.3603 50.2152 34.3603Z" fill="white"/>
<path d="M54.9897 27.0913H55.7347V31.8702C55.7347 33.6538 56.5812 34.3605 58.0034 34.3605C59.4594 34.3605 60.3059 33.6538 60.3059 31.8702V27.0913H61.0508V32.0384C61.0508 33.6202 60.2043 35 58.0034 35C55.8701 35 54.9897 33.6538 54.9897 32.0384V27.0913V27.0913Z" fill="white"/>
<path d="M62.5068 27.0913H63.3195L67.8568 33.6538H67.8907V27.0913H68.6356V34.8317H67.823L63.2856 28.2692H63.2518V34.8317H62.5068V27.0913V27.0913Z" fill="white"/>
<path d="M70.1934 27.0913H72.9022C75.2725 27.1586 76.4915 28.4038 76.4915 30.9615C76.4915 33.5192 75.2725 34.7644 72.9022 34.8317H70.1934V27.0913ZM70.9383 34.1923H72.5298C74.7646 34.1923 75.7465 33.2836 75.7465 30.9615C75.7465 28.6394 74.7646 27.7307 72.5298 27.7307H70.9383V34.1923Z" fill="white"/>
<path d="M79.9454 27.0913H80.7581L83.8056 34.8317H82.9929L82.0448 32.4086H78.5571L77.609 34.8317H76.7964L79.9454 27.0913ZM78.7942 31.8028H81.8755L80.3856 27.8317L78.7942 31.8028Z" fill="white"/>
<path d="M82.959 27.0913H89.1217V27.7307H86.4128V34.8317H85.6678V27.6971H82.959V27.0913Z" fill="white"/>
<path d="M89.9341 27.0913H90.679V34.8317H89.9341V27.0913Z" fill="white"/>
<path d="M95.5551 26.9229C97.9931 26.9229 99.212 28.8411 99.212 30.9613C99.212 33.0815 97.9931 34.9998 95.5551 34.9998C93.1171 34.9998 91.8643 33.0815 91.8643 30.9613C91.8981 28.8411 93.1171 26.9229 95.5551 26.9229ZM95.5551 34.3603C97.6206 34.3603 98.4671 32.644 98.4671 30.9613C98.4671 29.2786 97.5867 27.5623 95.5551 27.5623C93.4896 27.5623 92.6092 29.2786 92.6092 30.9613C92.6092 32.644 93.4896 34.3603 95.5551 34.3603Z" fill="white"/>
<path d="M100.363 27.0913H101.176L105.713 33.6538H105.747V27.0913H106.492V34.8317H105.679L101.142 28.2692H101.108V34.8317H100.363V27.0913Z" fill="white"/>
<path d="M41.1069 10.1636H45.4072V20.4616H51.5699V23.9953H41.1069V10.1636V10.1636Z" fill="white"/>
<path d="M54.3804 10.1636H58.6807V24.029H54.3804V10.1636Z" fill="white"/>
<path d="M61.8638 10.1636H66.2657L70.329 17.5674H70.3628V10.1636H74.4261V24.029H70.2612L65.9948 16.4568H65.9609V24.029H61.8976V10.1636H61.8638Z" fill="white"/>
<path d="M90.273 18.678C90.273 22.5482 88.2075 24.3655 83.941 24.3655C79.6407 24.3655 77.5752 22.5482 77.5752 18.678V10.1636H81.8755V17.702C81.8755 19.0818 81.8417 20.8992 83.9749 20.8992C86.0065 20.8992 86.0065 19.1155 86.0065 17.702V10.1636H90.3068V18.678H90.273Z" fill="white"/>
<path d="M97.1126 16.6588L92.5414 10.1636H97.5867L99.6861 13.9328L101.752 10.1636H106.526L102.056 16.6924L107 24.029H101.819L99.449 19.8895L96.9772 24.029H92.0674L97.1126 16.6588Z" fill="white"/>
<path opacity="0.8" d="M7.00918 27.8653V13.9326H0V34.8317H21.0275V27.8653H7.00918Z" fill="white"/>
<path d="M35.0459 0H0V10.4327H7.00918V7H28.0367V27.8654H24.5152V34.8317H35.0459V0Z" fill="white"/>
</g>
<defs>
<clipPath id="clip0_1121_475">
<rect width="107" height="35" fill="white"/>
</clipPath>
</defs>
</svg>
