<svg width="56" height="57" viewBox="0 0 56 57" fill="none" xmlns="http://www.w3.org/2000/svg">
    <path d="M32.1886 39.3693C32.046 40.2425 31.8194 41.086 31.514 41.8927L34.2536 44.3751C33.8695 45.1836 33.432 45.9606 32.9271 46.6904L29.4096 45.5564C28.8549 46.2345 28.2336 46.8549 27.5555 47.4096L28.6895 50.9271C27.9597 51.432 27.1828 51.8686 26.3743 52.2536L23.8919 49.514C23.0851 49.8194 22.2425 50.046 21.3684 50.1886L20.587 53.8076C20.1451 53.8426 19.7015 53.875 19.25 53.875C18.7985 53.875 18.3549 53.8426 17.9121 53.8076L17.1307 50.1886C16.2575 50.046 15.414 49.8194 14.6073 49.514L12.1249 52.2536C11.3164 51.8695 10.5394 51.432 9.80963 50.9271L10.9436 47.4096C10.2655 46.8549 9.64512 46.2336 9.09037 45.5564L5.57287 46.6904C5.068 45.9606 4.63138 45.1836 4.24638 44.3751L6.986 41.8927C6.68063 41.086 6.454 40.2434 6.31137 39.3693L2.69237 38.5879C2.65737 38.1451 2.625 37.7015 2.625 37.25C2.625 36.7985 2.65737 36.3549 2.69237 35.9121L6.31137 35.1307C6.454 34.2575 6.68063 33.414 6.986 32.6073L4.24638 30.1249C4.6305 29.3164 5.068 28.5394 5.57287 27.8096L9.09037 28.9436C9.64512 28.2655 10.2664 27.6451 10.9445 27.0904L9.8105 23.5729C10.5402 23.068 11.3172 22.6314 12.1257 22.2464L14.6081 24.986C15.4149 24.6806 16.2575 24.454 17.1316 24.3114L17.913 20.6924C18.3549 20.6574 18.7985 20.625 19.25 20.625C19.7015 20.625 20.1451 20.6574 20.5879 20.6924L21.3693 24.3114C22.2425 24.454 23.086 24.6806 23.8927 24.986L26.3751 22.2464C27.1836 22.6305 27.9606 23.068 28.6904 23.5729L27.5564 27.0904C28.2345 27.6451 28.8549 28.2664 29.4096 28.9445L32.9271 27.8105C33.432 28.5402 33.8686 29.3173 34.2536 30.1258L31.514 32.6081C31.8194 33.4149 32.046 34.2575 32.1886 35.1316L35.8076 35.913C35.8426 36.3549 35.875 36.7985 35.875 37.25C35.875 37.7015 35.8426 38.1451 35.8076 38.5879L32.1886 39.3693ZM19.25 28.5C14.4174 28.5 10.5 32.4174 10.5 37.25C10.5 42.0826 14.4174 46 19.25 46C24.0826 46 28 42.0826 28 37.25C28 32.4174 24.0826 28.5 19.25 28.5V28.5Z"
          fill="#0F6296"/>
    <path d="M44.3266 14.7669C44.1901 15.2193 44.0116 15.6532 43.792 16.0619L45.1736 18.7096C44.7072 19.2994 44.1753 19.8314 43.5855 20.2977L40.9377 18.9161C40.5291 19.1366 40.0951 19.3151 39.6427 19.4508L38.7468 22.3032C38.3775 22.347 38.0047 22.375 37.625 22.375C37.2453 22.375 36.8725 22.347 36.5041 22.3041L35.6081 19.4516C35.1557 19.316 34.7218 19.1366 34.3131 18.917L31.6654 20.2986C31.0756 19.8323 30.5436 19.3003 30.0773 18.7105L31.4589 16.0627C31.2384 15.6541 31.0599 15.2201 30.9242 14.7677L28.0718 13.8717C28.028 13.5025 28 13.1297 28 12.75C28 12.3703 28.028 11.9975 28.0709 11.6291L30.9234 10.7331C31.059 10.2807 31.2384 9.84675 31.458 9.43813L30.0764 6.79038C30.5428 6.20063 31.0747 5.66863 31.6645 5.20225L34.3123 6.58388C34.7209 6.36338 35.1549 6.18488 35.6073 6.04925L36.5032 3.19675C36.8725 3.153 37.2453 3.125 37.625 3.125C38.0047 3.125 38.3775 3.153 38.7459 3.19588L39.6419 6.04838C40.0943 6.184 40.5282 6.36338 40.9369 6.583L43.5846 5.20138C44.1744 5.66775 44.7064 6.19975 45.1727 6.7895L43.7911 9.43725C44.0116 9.84587 44.1901 10.2799 44.3258 10.7323L47.1782 11.6283C47.222 11.9975 47.25 12.3703 47.25 12.75C47.25 13.1297 47.222 13.5025 47.1791 13.8709L44.3266 14.7669ZM37.625 9.25C35.6921 9.25 34.125 10.8171 34.125 12.75C34.125 14.6829 35.6921 16.25 37.625 16.25C39.5579 16.25 41.125 14.6829 41.125 12.75C41.125 10.8171 39.5579 9.25 37.625 9.25Z"
          fill="#0F6296"/>
    <path d="M51.3966 34.5121C51.2619 34.9977 51.072 35.458 50.8288 35.8876L51.6994 37.7199C51.3039 38.2247 50.8497 38.6789 50.3449 39.0744L48.5126 38.2038C48.0839 38.447 47.6227 38.6369 47.1371 38.7716L46.4564 40.6861C46.1422 40.7246 45.8246 40.75 45.5 40.75C45.1754 40.75 44.8578 40.7246 44.5436 40.6861L43.8629 38.7716C43.3773 38.6369 42.917 38.447 42.4874 38.2038L40.6551 39.0744C40.1503 38.6789 39.6961 38.2247 39.3006 37.7199L40.1712 35.8876C39.928 35.4589 39.7381 34.9978 39.6034 34.513L37.6889 33.8323C37.6504 33.5173 37.625 33.1996 37.625 32.875C37.625 32.5504 37.6504 32.2328 37.6889 31.9186L39.6034 31.2379C39.7381 30.7523 39.928 30.292 40.1712 29.8632L39.3006 28.031C39.6961 27.5261 40.1503 27.072 40.6551 26.6765L42.4874 27.5471C42.9161 27.3039 43.3773 27.114 43.8629 26.9792L44.5436 25.0647C44.8578 25.0254 45.1754 25 45.5 25C45.8246 25 46.1422 25.0254 46.4564 25.0639L47.1371 26.9784C47.6227 27.1131 48.083 27.303 48.5126 27.5462L50.3449 26.6756C50.8497 27.0711 51.3039 27.5252 51.6994 28.0301L50.8288 29.8624C51.072 30.2911 51.2619 30.7523 51.3966 31.2379L53.3111 31.9186C53.3496 32.2328 53.375 32.5504 53.375 32.875C53.375 33.1996 53.3496 33.5172 53.3111 33.8314L51.3966 34.5121ZM45.5 30.25C44.0501 30.25 42.875 31.4251 42.875 32.875C42.875 34.3249 44.0501 35.5 45.5 35.5C46.9499 35.5 48.125 34.3249 48.125 32.875C48.125 31.4251 46.9499 30.25 45.5 30.25Z"
          fill="#0F6296"/>
    <path d="M53.5465 4.89251L48.3131 3.84601L47.2666 9.07851L48.9825 9.42238L49.4541 7.06688C50.302 8.83088 50.75 10.7751 50.75 12.75C50.75 15.767 49.7542 18.6038 47.8712 20.9531L49.2371 22.0478C51.3415 19.4219 52.5 16.1205 52.5 12.75C52.5 10.4584 51.9706 8.19913 50.9635 6.16038L53.2035 6.60838L53.5465 4.89251Z"
          fill="#0F6296"/>
    <path d="M20.7434 12.1314L19.5062 13.3687L20.6953 14.5578C20.214 14.5272 19.7319 14.5 19.2498 14.5C12.4808 14.5 6.10904 17.4847 1.76904 22.6891L3.11304 23.81C7.11967 19.0054 13.0005 16.25 19.2498 16.25C19.6952 16.25 20.1397 16.2754 20.5842 16.3034L19.5062 17.3814L20.7434 18.6187L23.987 15.375L20.7434 12.1314Z"
          fill="#0F6296"/>
</svg>
