<svg width="56" height="57" viewBox="0 0 56 57" fill="none" xmlns="http://www.w3.org/2000/svg">
    <path d="M55.37 41.1546L44.87 32.4046C44.3485 31.9671 43.6205 31.8796 43.008 32.1631C42.392 32.4536 42 33.0696 42 33.7486V38.9986H39.0705C36.6415 38.9986 34.4225 37.7666 33.1345 35.7086L21.8015 17.5787C19.229 13.4592 14.791 10.9987 9.9295 10.9987H0V17.9987H9.9295C12.3585 17.9987 14.5775 19.2307 15.8655 21.2887L27.1985 39.4186C29.7745 43.5381 34.2125 45.9986 39.0705 45.9986H42V51.2486C42 51.9276 42.392 52.5436 43.008 52.8341C43.2425 52.9426 43.498 52.9986 43.75 52.9986C44.1525 52.9986 44.5515 52.8621 44.87 52.5926L55.37 43.8426C55.7725 43.5101 56 43.0166 56 42.4986C56 41.9806 55.7725 41.4871 55.37 41.1546Z"
          fill="#0F6296"/>
    <path d="M55.3699 13.1547L44.8699 4.40468C44.3484 3.97068 43.6204 3.87968 43.0079 4.16668C42.3919 4.45018 41.9999 5.06968 41.9999 5.74868V10.9987H39.0704C34.2089 10.9987 29.7709 13.4592 27.1984 17.5787L26.5649 18.5937L30.6914 25.1982L33.1344 21.2887C34.4224 19.2307 36.6414 17.9987 39.0704 17.9987H41.9999V23.2487C41.9999 23.9277 42.3919 24.5472 43.0079 24.8342C43.2424 24.9427 43.4979 24.9987 43.7499 24.9987C44.1524 24.9987 44.5514 24.8587 44.8699 24.5927L55.3699 15.8427C55.7724 15.5102 55.9999 15.0167 55.9999 14.4987C55.9999 13.9807 55.7724 13.4872 55.3699 13.1547Z"
          fill="#0F6296"/>
    <path d="M18.3085 31.7992L15.869 35.7087C14.581 37.7667 12.3585 38.9987 9.9295 38.9987H0V45.9987H9.9295C14.7875 45.9987 19.2255 43.5382 21.8015 39.4187L22.435 38.4037L18.3085 31.7992Z"
          fill="#0F6296"/>
</svg>
