<svg width="56" height="57" viewBox="0 0 56 57" fill="none" xmlns="http://www.w3.org/2000/svg">
    <g clip-path="url(#clip0_1334_433)">
        <path d="M30.8965 47.1946V43.3448H0V47.2102C0 50.7106 2.82866 53.6034 6.32961 53.6034H34.0104C33.745 53.362 33.489 53.1504 33.2472 52.908C31.7352 51.3914 30.8895 49.3359 30.8965 47.1946V47.1946Z"
              fill="#0F6296"/>
        <path d="M21.8759 23.8563L26.3593 26.9343L30.8602 23.8563C32.0911 23.0166 33.0689 21.1219 33.0689 19.6321V13.2714L26.3706 9.95856L19.6724 13.2629V19.6321C19.6724 21.1214 20.6445 23.0166 21.8759 23.8563ZM22.8853 17.8444C23.2167 17.5163 23.7518 17.5186 24.0799 17.8505L25.4263 19.2102L28.667 15.9699C28.997 15.6399 29.5321 15.6399 29.8621 15.9704C30.1922 16.3004 30.1917 16.8355 29.8617 17.1655L26.0208 21.0083C25.8624 21.1671 25.6479 21.2577 25.4235 21.2586H25.4216C25.1963 21.2572 24.9808 21.1662 24.8234 21.005L22.8791 19.0409C22.551 18.7086 22.5538 18.1735 22.8853 17.8444Z"
              fill="#0F6296"/>
        <path d="M51.5217 3.39655H51.4948C49.0127 3.39655 46.9482 5.47043 46.9482 7.95399V15.7069H56V7.93891C56.0113 5.45063 54.01 3.42059 51.5217 3.39655V3.39655Z"
              fill="#0F6296"/>
        <path d="M12.9704 3.39655C10.6231 3.39655 8.71277 5.28138 8.71277 7.59334L8.46338 41.6552H31.7414C32.2152 41.674 32.5891 42.0649 32.5862 42.5396V47.1946C32.5777 50.714 35.4149 53.578 38.9337 53.6034H38.955C42.4611 53.578 45.2827 50.7154 45.2586 47.2092V7.95541C45.2586 6.17948 46.0577 4.60344 47.2585 3.39655L12.9704 3.39655ZM17.9828 12.7359C17.9719 12.4181 18.1459 12.1225 18.4292 11.9773L25.995 8.25902C26.2274 8.14399 26.4999 8.14399 26.7323 8.25902L34.3117 11.9877C34.595 12.1329 34.769 12.428 34.7586 12.7462V19.6321C34.7586 21.6815 33.5079 24.0977 31.814 25.2522L26.8506 28.6556C26.7116 28.7513 26.5466 28.8027 26.3778 28.8027C26.2095 28.8027 26.0454 28.7517 25.9073 28.6556L20.9293 25.2522C19.2363 24.0972 17.9828 21.681 17.9828 19.6321V12.7359ZM38.3793 37.7931H15.2069C14.7402 37.7931 14.3621 37.415 14.3621 36.9483C14.3621 36.4815 14.7402 36.1034 15.2069 36.1034H38.3793C38.8461 36.1034 39.2242 36.4815 39.2242 36.9483C39.2242 37.415 38.8461 37.7931 38.3793 37.7931ZM38.3793 33.3276H15.2069C14.7402 33.3276 14.3621 32.9495 14.3621 32.4828C14.3621 32.016 14.7402 31.6379 15.2069 31.6379H38.3793C38.8461 31.6379 39.2242 32.016 39.2242 32.4828C39.2242 32.9495 38.8461 33.3276 38.3793 33.3276Z"
              fill="#0F6296"/>
    </g>
    <defs>
        <clipPath id="clip0_1334_433">
            <rect width="56" height="56" fill="white" transform="translate(0 0.5)"/>
        </clipPath>
    </defs>
</svg>
