<svg width="56" height="57" viewBox="0 0 56 57" fill="none" xmlns="http://www.w3.org/2000/svg">
    <g clip-path="url(#clip0_1334_389)">
        <path d="M27.9999 10.3343C30.6969 10.3343 32.8832 8.14801 32.8832 5.45106C32.8832 2.75412 30.6969 0.56781 27.9999 0.56781C25.303 0.56781 23.1167 2.75412 23.1167 5.45106C23.1167 8.14801 25.303 10.3343 27.9999 10.3343Z"
              fill="#0F6296"/>
        <path d="M29.892 11.508C29.869 11.5074 29.8459 11.5068 29.8229 11.5064H26.1767C22.4377 11.5767 19.4636 14.6649 19.5339 18.404C19.5343 18.427 19.5349 18.4501 19.5356 18.4731V19.5149C19.5356 20.0358 19.7308 20.6218 20.3168 20.6218H35.6827C36.2686 20.6218 36.4639 20.0358 36.4639 19.5149V18.4731C36.5725 14.735 33.6301 11.6166 29.892 11.508Z"
              fill="#0F6296"/>
        <path d="M6.83934 32.9925C7.37872 32.9925 7.81602 32.5552 7.81602 32.0158C7.80244 25.8874 10.5828 20.0871 15.3687 16.2593C15.7776 15.9657 15.8712 15.3961 15.5776 14.9872C15.5535 14.9537 15.5272 14.9219 15.4989 14.892C15.1559 14.4814 14.5461 14.4233 14.1317 14.7618C8.90398 18.9635 5.86304 25.3088 5.86279 32.0158C5.86279 32.5553 6.29997 32.9925 6.83934 32.9925Z"
              fill="#0F6296"/>
        <path d="M34.4456 51.1579C30.2793 52.5247 25.7854 52.5247 21.6191 51.1579C21.1059 50.9918 20.5553 51.2731 20.3891 51.7861C20.3866 51.7937 20.3842 51.8013 20.382 51.8089C20.249 52.3274 20.5305 52.8621 21.033 53.0461C23.2829 53.7775 25.6338 54.151 27.9997 54.153C30.4137 54.1554 32.8115 53.7594 35.0966 52.981C35.5758 52.7335 35.7637 52.1443 35.5162 51.6651C35.3144 51.2742 34.8759 51.0666 34.4456 51.1579Z"
              fill="#0F6296"/>
        <path d="M39.642 15.5346C39.6461 15.5375 39.6503 15.5403 39.6546 15.5432C44.9935 19.3324 48.171 25.4689 48.1839 32.0159C48.1839 32.5553 48.6213 32.9926 49.1606 32.9926C49.7 32.9926 50.1373 32.5553 50.1373 32.0159C50.1194 24.8222 46.6271 18.0803 40.7615 13.9155C40.3061 13.6404 39.7166 13.7527 39.3942 14.1759C39.0873 14.6196 39.1983 15.2279 39.642 15.5346Z"
              fill="#0F6296"/>
        <path d="M8.46724 46.1444C11.1642 46.1444 13.3505 43.9581 13.3505 41.2612C13.3505 38.5642 11.1642 36.3779 8.46724 36.3779C5.77029 36.3779 3.58398 38.5642 3.58398 41.2612C3.58398 43.9581 5.77029 46.1444 8.46724 46.1444Z"
              fill="#0F6296"/>
        <path d="M10.3593 47.3181C10.3363 47.3175 10.3132 47.3169 10.2902 47.3165H6.64404C2.90496 47.3868 -0.0691875 50.475 0.00122488 54.2141C0.00159875 54.2371 0.00222187 54.2602 0.00284499 54.2832V55.325C0.00284499 55.8459 0.19813 56.4319 0.784111 56.4319H16.15C16.7359 56.4319 16.9312 55.8459 16.9312 55.325V54.2832C17.0399 50.545 14.0975 47.4267 10.3593 47.3181Z"
              fill="#0F6296"/>
        <path d="M47.5327 46.1444C50.2296 46.1444 52.4159 43.9581 52.4159 41.2612C52.4159 38.5642 50.2296 36.3779 47.5327 36.3779C44.8357 36.3779 42.6494 38.5642 42.6494 41.2612C42.6494 43.9581 44.8357 46.1444 47.5327 46.1444Z"
              fill="#0F6296"/>
        <path d="M49.4247 47.3181C49.4017 47.3175 49.3786 47.3169 49.3556 47.3165H45.7095C41.9704 47.3868 38.9964 50.475 39.0667 54.2141C39.067 54.2371 39.0676 54.2602 39.0683 54.2832V55.325C39.0683 55.8459 39.2636 56.4319 39.8495 56.4319H55.2155C55.8015 56.4319 55.9968 55.8459 55.9968 55.325V54.2832C56.1053 50.545 53.163 47.4267 49.4247 47.3181Z"
              fill="#0F6296"/>
    </g>
    <defs>
        <clipPath id="clip0_1334_389">
            <rect width="56" height="56" fill="white" transform="translate(0 0.5)"/>
        </clipPath>
    </defs>
</svg>
